<svg width="300" height="50" viewBox="0 0 300 50" fill="none" xmlns="http://www.w3.org/2000/svg">
<path d="M10.9027 27.8464H7.85463V9.67526H10.0821C16.4127 9.67526 19.3435 14.3646 19.3435 18.8195C19.3435 23.2743 16.4127 27.8464 10.9027 27.8464ZM10.0821 2.17233H0V46.4865H7.85463V35.4666H11.1372C21.102 35.4666 26.9637 27.0258 26.9637 18.9367C27.0809 10.4959 21.2192 2.17233 10.0821 2.17233Z" fill="black"/>
<path d="M58.0305 29.136C58.0305 33.9426 56.3892 39.687 48.769 39.687C42.7901 39.687 39.5076 35.9355 39.5076 29.136V2.17233H31.5357V29.4877C31.5357 40.0387 38.4525 47.1899 48.769 47.1899C59.0856 47.1899 65.8851 40.0387 65.8851 29.4877V2.17233H57.9132L58.0305 29.136Z" fill="black"/>
<path d="M92.8488 38.8664H79.2497V2.17233H71.3951V46.4865H92.8488V38.8664V38.8664Z" fill="black"/>
<path d="M117.585 38.8664H103.986V2.17233H96.1313V46.4865H117.585V38.8664Z" fill="black"/>
<path d="M175.615 38.9836H171.395V27.4947H175.85C183.822 27.4947 183.822 31.8324 183.822 33.2392C183.822 34.646 183.822 38.9836 175.615 38.9836ZM171.278 9.4408H174.091C180.305 9.4408 181.008 12.4889 181.008 14.8335C181.008 19.2884 177.491 20.2263 174.443 20.2263H171.278V9.4408ZM191.911 33.4736C191.911 28.4326 189.683 24.6811 185.346 22.5709C187.691 20.578 188.98 17.8816 188.98 14.8335C188.98 10.2614 186.753 6.50996 182.884 4.1653C180.188 2.52403 176.553 2.28957 171.864 2.28957H163.54V46.4865H177.257C185.346 46.4865 191.911 40.7421 191.911 33.4736Z" fill="black"/>
<path d="M223.212 9.67526V2.17233H196.131V46.4865H223.212V39.1008H203.986V27.612H222.157V20.3435H203.986V9.7925H223.212V9.67526Z" fill="black"/>
<path d="M241.149 27.4947L246.424 14.1301C246.424 14.2474 251.7 27.4947 251.7 27.4947H241.149ZM243.259 2.17233L225.322 46.4865H233.88L238.335 34.9977H254.631L259.086 46.4865H268.113L249.472 2.17233H243.259Z" fill="black"/>
<path d="M280.539 23.626H277.843V9.67526H280.188C286.401 9.67526 289.566 11.9027 289.566 16.3576C289.684 22.3365 284.76 23.626 280.539 23.626ZM293.904 35.2321C292.614 32.653 291.442 30.1911 290.621 28.4326C292.614 27.2603 294.373 25.7362 295.662 23.7433C296.952 21.6331 297.655 18.9367 297.655 16.1231C297.655 7.44783 291.325 2.17233 280.657 2.17233H269.871V46.3693H277.726V31.5979C277.726 31.5979 279.719 31.5979 282.415 31.2462C283.236 33.1219 284.525 35.9355 286.167 39.1008C287.339 41.4455 288.746 44.0246 290.152 46.4865H300C298.007 43.0867 295.662 38.8664 293.904 35.2321Z" fill="black"/>
<path d="M135.287 40.6249C131.301 40.6249 128.019 37.3423 128.019 33.3564C128.019 30.4256 130.012 27.9637 132.708 27.2603L141.97 37.4596C140.445 39.4525 137.984 40.6249 135.287 40.6249ZM155.451 27.612C155.569 27.612 155.686 27.612 155.686 27.612V20.109C150.176 20.109 145.604 23.9777 144.314 29.0188L132.708 16.2403L132.591 16.1231C131.77 15.3025 131.301 14.1301 131.301 12.9578C131.301 11.7855 131.77 10.7304 132.591 9.7925C133.412 8.97186 134.584 8.50293 135.639 8.50293C136.811 8.50293 137.866 8.97186 138.687 9.7925C139.039 10.1442 139.39 10.6131 139.625 11.1993L146.307 7.79953C145.721 6.6272 145.018 5.45486 143.963 4.517C141.618 2.17233 138.57 1 135.639 1C132.591 1 129.543 2.17233 127.315 4.517C124.971 6.86166 123.798 9.90973 123.798 12.9578C123.798 16.0059 124.971 18.9367 127.198 21.2814C123.095 23.626 120.281 28.0809 120.281 33.2392C120.281 41.3283 126.846 48.0105 134.936 48.0105C139.625 48.0105 143.845 46.0176 146.776 42.9695L149.824 46.3693H159.906L150.645 36.17C150.645 34.646 150.879 33.2392 151.231 31.9496C152.403 29.4877 153.81 27.7292 155.451 27.612Z" fill="black"/>
</svg>
